<svg id="visual" viewBox="0 0 1920 1080" width="1920" height="1080" xmlns="http://www.w3.org/2000/svg" xmlns:xlink="http://www.w3.org/1999/xlink" version="1.1"><rect x="0" y="0" width="1920" height="1080" fill="#FFFFFF"></rect><path d="M0 747L45.7 741C91.3 735 182.7 723 274.2 737.5C365.7 752 457.3 793 548.8 804.2C640.3 815.3 731.7 796.7 823 789.2C914.3 781.7 1005.7 785.3 1097 793.3C1188.3 801.3 1279.7 813.7 1371.2 838.5C1462.7 863.3 1554.3 900.7 1645.8 895C1737.3 889.3 1828.7 840.7 1874.3 816.3L1920 792L1920 1081L1874.3 1081C1828.7 1081 1737.3 1081 1645.8 1081C1554.3 1081 1462.7 1081 1371.2 1081C1279.7 1081 1188.3 1081 1097 1081C1005.7 1081 914.3 1081 823 1081C731.7 1081 640.3 1081 548.8 1081C457.3 1081 365.7 1081 274.2 1081C182.7 1081 91.3 1081 45.7 1081L0 1081Z" fill="#292a2f" stroke-linecap="round" stroke-linejoin="miter"></path></svg>