<svg width="32" height="32" viewBox="0 0 32 32" fill="none" xmlns="http://www.w3.org/2000/svg">
<rect x="0.5" y="0.5" width="31" height="31" rx="7.5" stroke="#E4E7EC"/>
<path d="M9.48608 20.25C14.4861 22.75 17.4861 22.75 22.4861 20.25" stroke="#E4E7EC" stroke-width="1.5" stroke-linecap="round" stroke-linejoin="round"/>
<path d="M19.4861 21.75L20.4861 23.75C20.4861 23.75 24.6571 22.422 25.9861 20.25C25.9861 19.25 26.5161 12.103 22.9861 9.75C21.4861 8.75 18.9861 8.25 18.9861 8.25L17.9861 10.25H15.9861" stroke="#E4E7EC" stroke-width="1.5" stroke-linecap="round" stroke-linejoin="round"/>
<path d="M12.5141 21.75L11.5141 23.75C11.5141 23.75 7.34311 22.422 6.01411 20.25C6.01411 19.25 5.48411 12.103 9.01411 9.75C10.5141 8.75 13.0141 8.25 13.0141 8.25L14.0141 10.25H16.0141" stroke="#E4E7EC" stroke-width="1.5" stroke-linecap="round" stroke-linejoin="round"/>
<path d="M12.4861 18.25C11.6581 18.25 10.9861 17.355 10.9861 16.25C10.9861 15.145 11.6581 14.25 12.4861 14.25C13.3141 14.25 13.9861 15.145 13.9861 16.25C13.9861 17.355 13.3141 18.25 12.4861 18.25ZM19.4861 18.25C18.6581 18.25 17.9861 17.355 17.9861 16.25C17.9861 15.145 18.6581 14.25 19.4861 14.25C20.3141 14.25 20.9861 15.145 20.9861 16.25C20.9861 17.355 20.3141 18.25 19.4861 18.25Z" stroke="#E4E7EC" stroke-width="1.5" stroke-linecap="round" stroke-linejoin="round"/>
</svg>
