<svg id="visual" viewBox="0 0 1920 1080" width="1920" height="1080" xmlns="http://www.w3.org/2000/svg" xmlns:xlink="http://www.w3.org/1999/xlink" version="1.1"><rect x="0" y="0" width="1920" height="1080" fill="#ffffff"></rect><defs><linearGradient id="grad1_0" x1="43.8%" y1="0%" x2="100%" y2="100%"><stop offset="14.444444444444446%" stop-color="#ffffff" stop-opacity="1"></stop><stop offset="85.55555555555554%" stop-color="#ffffff" stop-opacity="1"></stop></linearGradient></defs><defs><linearGradient id="grad2_0" x1="0%" y1="0%" x2="56.3%" y2="100%"><stop offset="14.444444444444446%" stop-color="#ffffff" stop-opacity="1"></stop><stop offset="85.55555555555554%" stop-color="#ffffff" stop-opacity="1"></stop></linearGradient></defs><g transform="translate(1920, 0)"><path d="M0 378C-43.4 359.9 -86.7 341.8 -135.5 327.1C-184.2 312.3 -238.4 300.8 -267.3 267.3C-296.2 233.8 -299.9 178.3 -314.1 130.1C-328.4 81.9 -353.2 40.9 -378 0L0 0Z" fill="#0b9aee"></path></g><g transform="translate(0, 1080)"><path d="M0 -378C61 -387.3 122 -396.6 144.7 -349.2C167.3 -301.8 151.6 -197.8 145 -145C138.3 -92.2 140.7 -90.6 181.1 -75C221.4 -59.4 299.7 -29.7 378 0L0 0Z" fill="#0b9aee"></path></g></svg>