<svg id="visual" viewBox="0 0 1920 1080" width="1920" height="1080" xmlns="http://www.w3.org/2000/svg" xmlns:xlink="http://www.w3.org/1999/xlink" version="1.1"><rect x="0" y="0" width="1920" height="1080" fill="#fff"></rect><g transform="translate(-65.97946957820596 72.88216125025076)"><path d="M356.7 -604.2C493.1 -539.1 655.8 -505.8 659.7 -410.4C663.7 -315 509.1 -157.5 493.8 -8.8C478.5 139.8 602.5 279.7 614.7 403.1C626.9 526.5 527.2 633.5 406.1 662.6C285 691.6 142.5 642.8 40.9 571.9C-60.7 501.1 -121.3 408.2 -227.3 370.3C-333.2 332.5 -484.4 349.7 -519.3 297.2C-554.1 244.7 -472.6 122.3 -448.2 14.1C-423.8 -94.2 -456.5 -188.3 -467 -319.2C-477.4 -450.2 -465.4 -617.8 -383.9 -714.6C-302.3 -811.3 -151.2 -837.2 -20.5 -801.7C110.2 -766.1 220.3 -669.3 356.7 -604.2" fill="#eebb00"></path></g></svg>